<svg xmlns="http://www.w3.org/2000/svg" viewBox="0 0 48 48"><defs><style>.cls-1{fill:#d3dbef;}.cls-2{fill:#bfcae2;}.cls-3{fill:#cc8679;}.cls-4{fill:#bf7267;}.cls-5{fill:#8491c1;}.cls-6{fill:#231f20;}</style></defs><title>Finance Report</title><g id="FInance_Report" data-name="FInance Report"><rect class="cls-1" x="7" y="7" width="34" height="39" rx="2" ry="2"/><path class="cls-2" d="M39,7H36a2,2,0,0,1,2,2V44a2,2,0,0,1-2,2h3a2,2,0,0,0,2-2V9A2,2,0,0,0,39,7Z"/><path class="cls-3" d="M32,5H27.8586a3.9814,3.9814,0,0,0-7.7172,0H16a1,1,0,0,0-1,1V8a1,1,0,0,0,1,1H32a1,1,0,0,0,1-1V6A1,1,0,0,0,32,5Z"/><path class="cls-4" d="M32,5H30V8a1,1,0,0,1-1,1h3a1,1,0,0,0,1-1V6A1,1,0,0,0,32,5Z"/><path class="cls-5" d="M24,33H15a1,1,0,0,1,0-2h9a1,1,0,0,1,0,2Z"/><path class="cls-5" d="M33,37H15a1,1,0,0,1,0-2H33a1,1,0,0,1,0,2Z"/><path class="cls-5" d="M33,41H15a1,1,0,0,1,0-2H33a1,1,0,0,1,0,2Z"/><path class="cls-5" d="M26,25H21a1,1,0,0,1,0-2h5V21H22a2.0023,2.0023,0,0,1-2-2V17a2.0023,2.0023,0,0,1,2-2h5a1,1,0,0,1,0,2H22v2h4a2.0023,2.0023,0,0,1,2,2v2A2.0023,2.0023,0,0,1,26,25Z"/><path class="cls-5" d="M24,17a1,1,0,0,1-1-1V14a1,1,0,0,1,2,0v2A1,1,0,0,1,24,17Z"/><path class="cls-5" d="M24,27a1,1,0,0,1-1-1V24a1,1,0,0,1,2,0v2A1,1,0,0,1,24,27Z"/><path class="cls-6" d="M39,6H34a2.0023,2.0023,0,0,0-2-2H28.5684a4.9783,4.9783,0,0,0-9.1367,0H16a2.0023,2.0023,0,0,0-2,2H9A3.0033,3.0033,0,0,0,6,9V44a3.0033,3.0033,0,0,0,3,3H39a3.0033,3.0033,0,0,0,3-3V9A3.0033,3.0033,0,0,0,39,6ZM16,6h4.1416a1.001,1.001,0,0,0,.9683-.749,2.9809,2.9809,0,0,1,5.78,0A1.001,1.001,0,0,0,27.8584,6H32V8H16ZM40,44a1.001,1.001,0,0,1-1,1H9a1.001,1.001,0,0,1-1-1V9A1.001,1.001,0,0,1,9,8h5a2.0023,2.0023,0,0,0,2,2H32a2.0023,2.0023,0,0,0,2-2h5a1.001,1.001,0,0,1,1,1Z"/><path class="cls-6" d="M15,33h9a1,1,0,0,0,0-2H15a1,1,0,0,0,0,2Z"/><path class="cls-6" d="M33,35H15a1,1,0,0,0,0,2H33a1,1,0,0,0,0-2Z"/><path class="cls-6" d="M33,39H15a1,1,0,0,0,0,2H33a1,1,0,0,0,0-2Z"/><path class="cls-6" d="M21,23a1,1,0,0,0,0,2h2v1a1,1,0,0,0,2,0V25h1a2.0023,2.0023,0,0,0,2-2V21a2.0023,2.0023,0,0,0-2-2H22V17h5a1,1,0,0,0,0-2H25V14a1,1,0,0,0-2,0v1H22a2.0023,2.0023,0,0,0-2,2v2a2.0023,2.0023,0,0,0,2,2h4v2Z"/></g></svg>